Coordinates
version=1
nRows=9
nColumns=42
inDegrees=yes

Units are S.I. units (second, meters, Newtons, ...)
If the header above contains a line with 'inDegrees', this indicates whether rotational values are in degrees (yes) or radians (no).

endheader
time	pelvis_tilt	pelvis_list	pelvis_rotation	pelvis_tx	pelvis_ty	pelvis_tz	hip_flexion_r	hip_adduction_r	hip_rotation_r	knee_angle_r	knee_adduction_r	knee_angle_r_beta	ankle_angle_r	subtalar_angle_r	mtp_angle_r	hip_flexion_l	hip_adduction_l	hip_rotation_l	knee_angle_l	knee_adduction_l	knee_angle_l_beta	ankle_angle_l	subtalar_angle_l	mtp_angle_l	lumbar_extension	lumbar_bending	lumbar_rotation	arm_flex_r	arm_add_r	arm_rot_r	elbow_flex_r	pro_sup_r	wrist_flex_r	wrist_dev_r	arm_flex_l	arm_add_l	arm_rot_l	elbow_flex_l	pro_sup_l	wrist_flex_l	wrist_dev_l
      1.00000000	      4.87188834	     -0.23574098	     -1.60584251	     -0.61900320	      0.93383792	     -0.09180387	     11.72306653	     -8.43362908	    -24.57129611	     34.51972367	      0.74856631	      0.60248283	     15.68834054	     16.32407869	     -9.64263658	     -2.93788531	     -2.42512523	    -19.13528896	     28.31742529	     -0.56542546	      0.49423231	     24.97885628	      6.69262030	     -9.64263658	    -16.85691396	      1.83290441	     -2.82526747	      8.31600967	    -11.99243761	      3.78046678	     39.14966025	     90.00000001	      0.00000000	      0.00000000	    -14.31129562	     -7.89231221	     -4.19870399	     53.26324106	     90.00000001	      0.00000000	      0.00000000
      1.01000000	      4.72300821	     -0.18939927	     -1.68152321	     -0.61709945	      0.93360767	     -0.09056553	     11.78995003	     -8.39756452	    -24.57040480	     34.55379934	      0.73905208	      0.60307757	     15.72395353	     16.33025027	     -9.63991687	     -2.93160904	     -2.44497346	    -19.16177730	     28.28699293	     -0.56796933	      0.49370116	     24.97379785	      6.68355223	     -9.63991687	    -16.84239507	      1.89395279	     -2.92703922	      8.53627929	    -11.92768331	      3.78390623	     39.27641354	     90.00000001	      0.00000000	      0.00000000	    -14.22468713	     -7.87973867	     -4.16138968	     53.29940327	     90.00000001	      0.00000000	      0.00000000
      1.02000000	      4.56576684	     -0.16780115	     -1.73799261	     -0.61517287	      0.93336214	     -0.08933677	     11.88737559	     -8.30659755	    -24.50982086	     34.63369058	      0.68378514	      0.60447193	     15.80970890	     16.33795180	     -9.63611485	     -2.91611987	     -2.49195639	    -19.19999234	     28.24047917	     -0.59378094	      0.49288934	     24.96158808	      6.67256293	     -9.63611485	    -16.81632759	      1.99689997	     -3.10486524	      8.78449535	    -11.84338690	      3.79879082	     39.45853165	     90.00000001	      0.00000000	      0.00000000	    -14.19971238	     -7.88618091	     -4.09663313	     53.33128743	     90.00000001	      0.00000000	      0.00000000
      1.03000000	      4.27928743	     -0.17569468	     -1.82691192	     -0.61321398	      0.93281197	     -0.08794688	     12.20101562	     -8.10352400	    -24.31892996	     34.81772000	      0.50993210	      0.60768385	     16.33647067	     16.22009684	     -9.60994110	     -2.70172483	     -2.61336759	    -19.34093215	     28.34381950	     -0.65962180	      0.49469297	     24.92398784	      6.69145434	     -9.60994110	    -16.63114277	      2.12411667	     -3.21539663	      8.87088024	    -11.85155756	      4.02305355	     39.81531454	     90.00000001	      0.00000000	      0.00000000	    -14.29220422	     -7.98831215	     -3.80705484	     53.59084906	     90.00000001	      0.00000000	      0.00000000
      1.04000000	      4.13953878	     -0.12167092	     -1.86034947	     -0.61134705	      0.93269023	     -0.08676934	     12.25064548	     -8.06426826	    -24.24757806	     34.84037332	      0.51315947	      0.60807923	     16.35759632	     16.21599343	     -9.60703423	     -2.68371149	     -2.62675536	    -19.36969900	     28.33096571	     -0.68546288	      0.49446863	     24.92256204	      6.69856965	     -9.60703423	    -16.63495814	      2.19664272	     -3.36219226	      9.07413696	    -11.78660357	      4.05242012	     39.96320346	     90.00000001	      0.00000000	      0.00000000	    -14.20091895	     -7.99367197	     -3.76063378	     53.60903381	     90.00000001	      0.00000000	      0.00000000
      1.05000000	      3.99756146	     -0.09724737	     -1.86853866	     -0.60944112	      0.93256541	     -0.08562821	     12.29473761	     -7.96776303	    -24.06837352	     34.87518761	      0.51361069	      0.60868685	     16.44270093	     16.18115260	     -9.60244325	     -2.64107640	     -2.66142307	    -19.39991625	     28.33603563	     -0.77385637	      0.49455712	     24.89177040	      6.72210817	     -9.60244325	    -16.62987456	      2.32129569	     -3.59027327	      9.28009133	    -11.71736230	      4.11404020	     40.18913404	     90.00000001	      0.00000000	      0.00000000	    -14.19222258	     -8.01894256	     -3.68457712	     53.62001845	     90.00000001	      0.00000000	      0.00000000
      1.06000000	      3.85067949	     -0.06021503	     -1.88079985	     -0.60762281	      0.93248069	     -0.08448921	     12.33998340	     -7.89011569	    -23.90901313	     34.86962463	      0.54356158	      0.60858976	     16.55025773	     16.11824595	     -9.59841868	     -2.57984183	     -2.68989937	    -19.43522443	     28.36894172	     -0.85365564	      0.49513144	     24.84437755	      6.75236283	     -9.59841868	    -16.62935952	      2.43422186	     -3.76536274	      9.46227235	    -11.66562094	      4.18959633	     40.40720745	     90.00000001	      0.00000000	      0.00000000	    -14.13043653	     -8.03261122	     -3.61377248	     53.67434495	     90.00000001	      0.00000000	      0.00000000
      1.07000000	      3.57440268	     -0.15593275	     -1.88324100	     -0.60582516	      0.93213062	     -0.08329825	     12.41145190	     -7.61706112	    -23.19900873	     34.70890760	      0.93023509	      0.60578472	     17.06006846	     15.27954046	     -9.56660038	     -2.16789961	     -2.94827069	    -19.78769906	     28.84348404	     -1.12655922	      0.50341376	     24.67172043	      7.02933053	     -9.56660038	    -16.48011935	      2.69834113	     -3.87692037	      9.36891306	    -11.89441456	      4.90263181	     41.15958463	     90.00000001	      0.00000000	      0.00000000	    -14.18155583	     -8.11859674	     -3.28065566	     53.96515885	     90.00000001	      0.00000000	      0.00000000
      1.08000000	      3.45605414	     -0.08947588	     -1.92928931	     -0.60404635	      0.93215690	     -0.08211340	     12.44127193	     -7.57483178	    -23.08261002	     34.71603505	      0.91067715	      0.60590911	     17.04063814	     15.21725199	     -9.56319340	     -2.13685012	     -2.95077482	    -19.80961058	     28.87720077	     -1.16220486	      0.50400223	     24.66637910	      7.06573692	     -9.56319340	    -16.52133186	      2.78202931	     -4.00117225	      9.55963425	    -11.85804730	      4.95866173	     41.31337019	     90.00000001	      0.00000000	      0.00000000	    -14.11938702	     -8.14849969	     -3.25630772	     53.95909861	     90.00000001	      0.00000000	      0.00000000
